<?xml version="1.0" encoding="UTF-8" standalone="no"?>
<svg
   height="24"
   width="24"
   viewBox="0 0 24 24"
   version="1.1"
   id="svg2"
   sodipodi:docname="client-register_cart_9.svg"
   inkscape:version="1.3 (1:1.3+202307231459+0e150ed6c4)"
   xmlns:inkscape="http://www.inkscape.org/namespaces/inkscape"
   xmlns:sodipodi="http://sodipodi.sourceforge.net/DTD/sodipodi-0.dtd"
   xmlns="http://www.w3.org/2000/svg"
   xmlns:svg="http://www.w3.org/2000/svg">
  <sodipodi:namedview
     id="namedview2"
     pagecolor="#ffffff"
     bordercolor="#000000"
     borderopacity="0.25"
     inkscape:showpageshadow="2"
     inkscape:pageopacity="0.0"
     inkscape:pagecheckerboard="0"
     inkscape:deskcolor="#d1d1d1"
     inkscape:zoom="14.104167"
     inkscape:cx="20.171344"
     inkscape:cy="10.067947"
     inkscape:window-width="1920"
     inkscape:window-height="882"
     inkscape:window-x="0"
     inkscape:window-y="0"
     inkscape:window-maximized="1"
     inkscape:current-layer="g1946" />
  <defs
     id="defs1">
    <style
       type="text/css"
       id="current-color-scheme">&#10;            .ColorScheme-Text {&#10;                color:#232629;&#10;            }&#10;            .ColorScheme-PositiveText {&#10;                color:#27ae60;&#10;            }&#10;        </style>
    <linearGradient
       id="linearGradient4058-1-8-2-8">
      <stop
         style="stop-color:#75a125;stop-opacity:1;"
         offset="0"
         id="stop4060-41-2-1-2" />
      <stop
         style="stop-color:#353520;stop-opacity:1"
         offset="1"
         id="stop4062-0-13-7-5" />
    </linearGradient>
    <linearGradient
       id="linearGradient5276-4-6">
      <stop
         id="stop5278-1-9"
         offset="0"
         style="stop-color:#ffffff;stop-opacity:0.54929578;" />
      <stop
         id="stop5280-65-6"
         offset="1"
         style="stop-color:#ffffff;stop-opacity:0;" />
    </linearGradient>
  </defs>
  <g
     id="g1946"
     transform="matrix(0.14166133,0,0,0.1416613,43.048586,-2.4234434)"
     style="fill:#ffffff">
    <g
       id="g1"
       transform="matrix(0.9658855,0,0,0.9658855,-7.9585669,4.888218)">
      <rect
         style="fill:#00a300;fill-opacity:1;stroke:#000000;stroke-width:7.05909;stroke-dasharray:none;stroke-opacity:1"
         id="rect548"
         width="164.6886"
         height="140"
         x="-301.02051"
         y="22.11857"
         rx="4.6999998" />
      <circle
         style="fill:#000000;stroke-width:0.666667"
         id="path776"
         cx="-156.83044"
         cy="172.11423"
         r="10" />
      <circle
         style="fill:#000000;stroke-width:0.666667"
         id="path776-6"
         cx="-281.73779"
         cy="171.78291"
         r="10" />
      <rect
         style="fill:#000000"
         id="rect1053"
         width="4.1316695"
         height="140"
         x="-223.04083"
         y="22.11857" />
      <rect
         style="fill:#000000;stroke-width:0.377964"
         id="rect1053-7"
         width="4.1316695"
         height="20"
         x="-235.70775"
         y="82.118568"
         rx="4.6999998" />
      <rect
         style="fill:#000000;stroke-width:0.534522"
         id="rect1053-7-3"
         width="4.1316695"
         height="40"
         x="-45.577087"
         y="-283.77734"
         rx="4.6999998"
         transform="rotate(-90)" />
      <rect
         style="fill:#000000;stroke-width:0.534522"
         id="rect1053-7-3-5"
         width="4.1316695"
         height="40"
         x="-55.442455"
         y="-283.77734"
         rx="4.6999998"
         transform="rotate(-90)" />
      <rect
         style="fill:#000000;stroke-width:0.377964"
         id="rect1053-7-5"
         width="4.1316695"
         height="20"
         x="-206.5117"
         y="82.118568"
         rx="4.6999998" />
      <rect
         style="fill:#000000;stroke-width:0.534522"
         id="rect1053-7-3-6"
         width="4.1316695"
         height="40"
         x="-67.050369"
         y="-283.77734"
         rx="4.6999998"
         transform="rotate(-90)" />
      <rect
         style="fill:#000000;stroke-width:0.534522"
         id="rect1053-7-3-2"
         width="4.1316695"
         height="40"
         x="-45.117683"
         y="-196.60666"
         rx="4.6999998"
         transform="rotate(-90)" />
      <rect
         style="fill:#000000;stroke-width:0.534522"
         id="rect1053-7-3-5-9"
         width="4.1316695"
         height="40"
         x="-54.983055"
         y="-196.60666"
         rx="4.6999998"
         transform="rotate(-90)" />
      <rect
         style="fill:#000000;stroke-width:0.534522"
         id="rect1053-7-3-6-1"
         width="4.1316695"
         height="40"
         x="-66.590965"
         y="-196.60666"
         rx="4.6999998"
         transform="rotate(-90)" />
      <rect
         style="fill:#000000;stroke-width:0.534522"
         id="rect1053-7-3-3"
         width="4.1316695"
         height="40"
         x="-116.34399"
         y="-283.77734"
         rx="4.6999998"
         transform="rotate(-90)" />
      <rect
         style="fill:#000000;stroke-width:0.534522"
         id="rect1053-7-3-5-6"
         width="4.1316695"
         height="40"
         x="-126.20935"
         y="-283.77734"
         rx="4.6999998"
         transform="rotate(-90)" />
      <rect
         style="fill:#000000;stroke-width:0.534522"
         id="rect1053-7-3-6-7"
         width="4.1316695"
         height="40"
         x="-137.81726"
         y="-283.77734"
         rx="4.6999998"
         transform="rotate(-90)" />
      <rect
         style="fill:#000000;stroke-width:0.534522"
         id="rect1053-7-3-2-5"
         width="4.1316695"
         height="40"
         x="-115.88458"
         y="-196.60666"
         rx="4.6999998"
         transform="rotate(-90)" />
      <rect
         style="fill:#000000;stroke-width:0.534522"
         id="rect1053-7-3-5-9-3"
         width="4.1316695"
         height="40"
         x="-125.74995"
         y="-196.60666"
         rx="4.6999998"
         transform="rotate(-90)" />
      <rect
         style="fill:#000000;stroke-width:0.534522"
         id="rect1053-7-3-6-1-5"
         width="4.1316695"
         height="40"
         x="-137.35786"
         y="-196.60666"
         rx="4.6999998"
         transform="rotate(-90)" />
      <path
         style="-inkscape-font-specification:'Roboto Bold';fill:#ffffff;stroke-width:0.333744"
         d="m -179.9089,88.091818 q 0,28.029332 -14.36996,45.320652 -14.291,17.29132 -43.18883,17.60715 h -2.84242 v -19.10731 h 1.89494 q 17.13341,-0.0789 25.58169,-7.26394 8.52723,-7.26394 9.86948,-20.84434 -9.15888,8.84305 -21.00225,8.84305 -16.18594,0 -24.87108,-11.05381 -8.60619,-11.132776 -8.60619,-27.713502 0,-16.738637 10.42216,-28.660964 10.50114,-12.001288 28.10829,-12.001288 17.76506,0 28.34514,12.948759 10.65903,12.869795 10.65903,34.02996 z m -54.79534,-14.448912 q 0,8.843053 4.02675,15.15952 4.02674,6.316468 12.3171,6.316468 5.60587,0 9.63262,-2.84241 4.02674,-2.921372 6.00064,-7.027076 V 76.01158 q 0,-12.238159 -4.6584,-18.238803 -4.65838,-6.079594 -11.6065,-6.079594 -7.50081,0 -11.6065,6.790202 -4.10571,6.711241 -4.10571,15.159521 z"
         id="text2"
         aria-label="9" />
    </g>
  </g>
  <g
     id="g5"
     transform="matrix(1.4471978,0,0,1.4471978,-36.563058,0.33026983)" />
</svg>
